<?xml version="1.0" encoding="utf-8"?>
<!-- Generator: Adobe Illustrator 19.2.0, SVG Export Plug-In . SVG Version: 6.00 Build 0)  -->
<svg version="1.1" id="Layer_1" xmlns="http://www.w3.org/2000/svg" xmlns:xlink="http://www.w3.org/1999/xlink" x="0px" y="0px"
	 viewBox="0 0 65 65" style="enable-background:new 0 0 65 65;" xml:space="preserve">
<g>
	<circle style="fill:#FFFFFF;" cx="32.5" cy="32.5" r="32.5"/>
	<path id="H" style="fill:#6194BC;" d="M32.5,0C14.6,0,0,14.6,0,32.5C0,50.4,14.6,65,32.5,65S65,50.4,65,32.5C65,14.6,50.4,0,32.5,0
		z M45.1,43.5l-7.4-7.4l2.3-2.3l-1.2-1.2l-6.3,6.3l1.2,1.2l2.4-2.4l7.4,7.4L32.5,56.2l-7.4-7.4l1.3-1.3l-8.8-8.8l-1.3,1.3l-7.4-7.4
		l11.1-11.1l7.4,7.4l-2.4,2.4l1.5,1.5l6.3-6.3l-1.5-1.5l-2.3,2.3l-7.4-7.4l11-11l7.4,7.4l-1.3,1.3l8.8,8.8l1.3-1.3l7.4,7.4
		L45.1,43.5z"/>
</g>
</svg>
